<svg xmlns="http://www.w3.org/2000/svg" fill="none" viewBox="0 0 32 32" class="design-iconfont">
  <path d="M11.3935 23.6065C11.4927 23.7058 11.6006 23.7944 11.7173 23.8724C11.834 23.9504 11.9572 24.0163 12.0869 24.07C12.2166 24.1237 12.3502 24.1643 12.4879 24.1916C12.6255 24.219 12.7646 24.2327 12.9049 24.2327C13.0453 24.2327 13.1843 24.219 13.3219 24.1916C13.4596 24.1643 13.5933 24.1237 13.7229 24.07C13.8526 24.0163 13.9758 23.9504 14.0925 23.8724C14.2092 23.7944 14.3171 23.7058 14.4164 23.6065L27.3732 10.6497C27.4725 10.5505 27.5612 10.4425 27.6393 10.3258C27.7173 10.2091 27.7832 10.0859 27.837 9.95622C27.8908 9.82653 27.9314 9.69284 27.9588 9.55516C27.9862 9.41747 28 9.27842 28 9.13803C28 8.99763 27.9864 8.85858 27.959 8.72088C27.9316 8.58318 27.8911 8.44947 27.8374 8.31976C27.7837 8.19004 27.7178 8.06681 27.6398 7.95007C27.5618 7.83334 27.4732 7.72533 27.3739 7.62605C27.2746 7.52678 27.1666 7.43815 27.0499 7.36016C26.9332 7.28217 26.8099 7.21632 26.6802 7.1626C26.5505 7.10889 26.4168 7.06836 26.2791 7.04099C26.1414 7.01363 26.0023 6.99997 25.8619 7C25.7215 7.00003 25.5825 7.01377 25.4448 7.0412C25.3071 7.06863 25.1734 7.10924 25.0438 7.16301C24.9141 7.21679 24.7909 7.2827 24.6742 7.36075C24.5575 7.4388 24.4495 7.52749 24.3503 7.62681L12.8126 18.9798L7.649 13.8163C7.54976 13.717 7.44178 13.6284 7.32508 13.5504C7.20839 13.4724 7.0852 13.4066 6.95553 13.3529C6.82586 13.2992 6.6922 13.2586 6.55455 13.2313C6.41689 13.2039 6.27789 13.1902 6.13754 13.1902C5.99718 13.1902 5.85818 13.2039 5.72052 13.2313C5.58287 13.2586 5.4492 13.2992 5.31954 13.3529C5.18987 13.4066 5.06668 13.4724 4.94998 13.5504C4.83328 13.6284 4.72531 13.717 4.62607 13.8163C4.52682 13.9155 4.43821 14.0235 4.36024 14.1402C4.28226 14.2569 4.21642 14.3801 4.16271 14.5097C4.109 14.6394 4.06845 14.7731 4.04107 14.9107C4.01369 15.0484 4 15.1874 4 15.3277C4 15.4681 4.01369 15.6071 4.04107 15.7447C4.06845 15.8824 4.109 16.0161 4.16271 16.1457C4.21642 16.2754 4.28226 16.3986 4.36024 16.5153C4.43822 16.632 4.52683 16.7399 4.62607 16.8392L11.3935 23.6065Z" fill="currentColor"/>
</svg>
